<?xml version="1.0" standalone="no"?><!DOCTYPE svg PUBLIC "-//W3C//DTD SVG 1.1//EN" "http://www.w3.org/Graphics/SVG/1.1/DTD/svg11.dtd"><svg t="1742991863152" class="icon" viewBox="0 0 1024 1024" version="1.1" xmlns="http://www.w3.org/2000/svg" p-id="4243" xmlns:xlink="http://www.w3.org/1999/xlink" width="200" height="200"><path d="M962.874 105.658a105.193 105.193 0 0 0-111.71-6.283V0H173.929v97.745a106.356 106.356 0 0 0-111.942 7.913c-27.229 17.687-41.658 54.691-38.865 102.633 6.75 117.527 101.004 281.833 246.458 357.236A656.756 656.756 0 0 0 442.03 693.993v41.425h-47.942v137.775h40.03C414.8 916.48 315.891 927.65 274.465 927.65h-16.058V1024h503.157v-96.116h-16.99c-38.4 0-139.636-12.8-159.65-54.459h40.96V735.418h-47.942v-41.425a709.818 709.818 0 0 0 171.054-126.604c148.48-74.007 242.735-241.57 251.579-359.098 3.956-47.942-10.473-84.946-37.702-102.633zM55.237 206.662c-1.629-36.771 6.284-64.233 23.273-75.404a73.31 73.31 0 0 1 93.091 4.655v209.454a286.953 286.953 0 0 0 41.89 143.36c-94.02-78.429-153.134-195.49-158.02-282.065z m913.688 0c-4.655 86.574-65.63 206.662-161.28 285.323A288.116 288.116 0 0 0 849.07 344.67V137.775a75.87 75.87 0 0 1 95.884-6.284c17.92 11.17 25.832 38.4 24.436 75.17z" fill="#FBBC36" p-id="4244"></path><path d="M473.448 395.636h110.546v46.546H410.612v-19.55a91.23 91.23 0 0 1 6.749-35.84 118.69 118.69 0 0 1 16.99-28.625 144.99 144.99 0 0 1 23.272-23.272q12.102-9.775 23.273-17.455t20.014-15.593a116.364 116.364 0 0 0 14.662-14.894 57.018 57.018 0 0 0 8.844-14.895A44.45 44.45 0 0 0 525.812 256a32.35 32.35 0 0 0-9.542-25.367 42.124 42.124 0 0 0-27.694-7.68 97.047 97.047 0 0 0-64.466 26.763v-50.501a138.24 138.24 0 0 1 76.8-22.11 113.338 113.338 0 0 1 34.211 5.12 75.17 75.17 0 0 1 26.53 14.895 63.302 63.302 0 0 1 16.525 23.273 78.895 78.895 0 0 1 5.818 30.72 86.807 86.807 0 0 1-5.586 32.116 98.676 98.676 0 0 1-14.662 25.367 134.284 134.284 0 0 1-21.178 20.946q-12.102 9.542-24.902 18.385l-16.756 12.335a158.72 158.72 0 0 0-14.196 12.102A64 64 0 0 0 476.939 384a19.782 19.782 0 0 0-3.49 11.636z" fill="#FEFEFF" p-id="4245"></path></svg>