<?xml version="1.0" standalone="no"?><!DOCTYPE svg PUBLIC "-//W3C//DTD SVG 1.1//EN" "http://www.w3.org/Graphics/SVG/1.1/DTD/svg11.dtd"><svg t="1742991960187" class="icon" viewBox="0 0 1024 1024" version="1.1" xmlns="http://www.w3.org/2000/svg" p-id="8950" xmlns:xlink="http://www.w3.org/1999/xlink" width="200" height="200"><path d="M261.6 208.5H94.7C42.4 208.5 0 251 0 303.2v115.9c0 115.3 93.5 208.2 208.2 208.2h53.4c52.2 0 94.7-42.5 94.7-94.7V303.2c0-52.2-42.5-94.7-94.7-94.7z m-16.1 323.6h-52.8c-56.2 0-101.5-45.3-101.5-101.5v-128h154.3v229.5z m422.2-228.9v229.5c0 52.2 42.5 94.7 94.7 94.7h53.4c115.3 0 208.2-93.5 208.2-208.2v-116c0-52.2-42.5-94.7-94.7-94.7H762.4c-52.2 0-94.7 42.5-94.7 94.7z m110.2-0.6h154.3v127.9c0 56.2-45.3 101.5-101.5 101.5h-52.8V302.6zM469.8 683.5H557v191.6h-87.2zM339 875.1h338.5v84.3H339z" fill="#FF9C5A" p-id="8951"></path><path d="M277.1 953.7h461.8v56.8H277.1zM79.7 13.5h859.4v91.8H79.7z" fill="#FF9C5A" p-id="8952"></path><path d="M143.4 64v287.4c0 208.8 163.5 377.5 365.4 377.5s365.4-169.3 365.4-377.5V64H143.4z m449.5 453.9c-21.6 18.9-49.3 28.4-83 28.4-32.2 0-58.3-8.3-78.1-24.8-22.2-18.6-34.6-45.7-37.3-81.2h48.8c0.9 21.6 7.8 38 20.9 49.3 11.5 10.7 26.6 16 45.3 16 20.1 0 36.5-5.9 49.3-17.7 10.9-10.9 16.4-24.1 16.4-39.5 0-18.6-5.8-32.4-17.3-41.3-10.7-8.9-26.5-13.3-47.5-13.3h-23.1v-36.4h22.6c19.2 0 33.9-4.3 43.9-12.9 10.1-8.6 15.1-20.9 15.1-36.8 0-15.7-4.6-27.8-13.8-36.4-9.5-8.6-23.8-12.9-43-12.9s-34.2 4.9-44.8 14.6c-10.9 10.1-17.3 24.7-19.1 43.9h-47.5c2.7-31.4 14.3-55.9 35.1-73.7 19.2-17.5 44.5-26.2 75.9-26.2 31.9 0 57.5 7.7 76.8 23.1 18.9 15.7 28.4 37 28.4 63.9 0 34.9-17.5 58.1-52.4 69.7 18.3 5.6 32.5 14.4 42.6 26.2 10.6 11.8 16 27.2 16 46.1-0.1 29.3-10.1 53.3-30.2 71.9z" fill="#FF9C5A" p-id="8953"></path></svg>